<?xml version="1.0" standalone="no"?>
<!DOCTYPE svg PUBLIC "-//W3C//DTD SVG 20010904//EN"
 "http://www.w3.org/TR/2001/REC-SVG-20010904/DTD/svg10.dtd">
<svg version="1.0" xmlns="http://www.w3.org/2000/svg"
 width="1418.000000pt" height="1418.000000pt" viewBox="0 0 1418.000000 1418.000000"
 preserveAspectRatio="xMidYMid meet">
<metadata>
Created by potrace 1.14, written by Peter Selinger 2001-2017
</metadata>
<g transform="translate(0.000000,1418.000000) scale(0.100000,-0.100000)"
fill="#000000" stroke="none">
<path d="M6854 10522 c-72 -11 -67 -6 -326 -377 -205 -294 -447 -639 -462
-660 -18 -24 -335 -476 -414 -590 -57 -82 -194 -276 -232 -330 -43 -61 -187
-266 -344 -490 -88 -126 -164 -234 -169 -240 -4 -5 -68 -95 -141 -200 -114
-164 -395 -564 -505 -720 -38 -54 -71 -101 -516 -735 -164 -234 -398 -567
-520 -740 -121 -173 -242 -344 -266 -380 -36 -51 -233 -331 -289 -410 -6 -8
-137 -195 -291 -415 -154 -220 -302 -429 -329 -465 -26 -36 -50 -76 -51 -90
l-4 -24 550 -1 c433 -1 558 2 590 12 46 16 81 52 150 154 27 41 52 76 55 79 3
3 19 25 35 50 17 25 34 50 38 55 14 18 80 112 152 215 130 186 214 305 225
317 5 7 10 16 10 22 0 5 4 11 8 13 4 2 91 122 194 268 157 225 335 478 584
830 29 41 75 107 102 145 27 39 88 126 137 195 112 158 140 198 200 285 51 73
357 508 560 795 203 287 386 547 560 795 499 708 698 985 706 979 6 -3 9 -990
9 -2568 -1 -1671 3 -2572 9 -2589 19 -50 42 -54 338 -51 270 2 272 2 301 25
16 13 40 40 53 59 13 19 26 37 29 40 3 3 10 13 15 22 15 25 266 385 329 473 8
11 51 72 95 135 95 138 119 172 220 315 42 61 102 146 132 190 30 44 109 157
175 250 65 94 132 191 149 215 16 25 33 47 36 50 3 3 21 28 39 55 31 45 706
1014 786 1127 18 25 54 77 80 115 26 37 64 91 83 118 19 28 121 173 225 322
274 392 771 1102 841 1202 32 47 75 109 95 137 84 122 207 299 233 335 15 21
34 39 42 39 13 0 15 -298 15 -2580 0 -1919 3 -2586 11 -2604 7 -15 25 -29 43
-34 17 -5 228 -8 469 -8 432 2 438 2 459 23 l21 22 0 3383 c0 2528 -3 3388
-11 3404 -17 32 -56 41 -162 38 -129 -4 -551 -4 -679 0 -122 4 -182 -9 -243
-53 -54 -39 -62 -49 -243 -311 -82 -118 -153 -216 -157 -218 -4 -2 -8 -8 -8
-13 0 -5 -30 -52 -67 -104 -38 -52 -87 -123 -111 -157 -61 -89 -321 -463 -363
-523 -19 -27 -62 -88 -94 -135 -99 -144 -220 -316 -355 -510 -110 -156 -194
-276 -245 -351 -33 -47 -98 -141 -145 -207 -47 -67 -178 -256 -292 -420 -114
-163 -213 -305 -220 -314 -7 -9 -128 -181 -268 -383 -140 -201 -302 -433 -360
-515 -58 -82 -130 -186 -160 -232 -56 -83 -117 -154 -125 -146 -3 2 -5 972 -4
2154 0 1182 0 2197 0 2256 0 122 -14 163 -58 174 -26 7 -920 12 -959 6z"/>
</g>
</svg>
